<?xml version="1.0" encoding="utf-8"?>
<!-- Generator: Adobe Illustrator 24.0.1, SVG Export Plug-In . SVG Version: 6.00 Build 0)  -->
<svg version="1.1" id="Layer_1" xmlns="http://www.w3.org/2000/svg" xmlns:xlink="http://www.w3.org/1999/xlink" x="0px" y="0px"
	 viewBox="0 0 500 500" style="enable-background:new 0 0 500 500;" xml:space="preserve">
<style type="text/css">
	.st0{fill:#FFFFFF;}
	.st1{fill:#AE7FFF;}
</style>
<g>
	<path class="st0" d="M212.7,336.6c24-41.5,47.5-82.2,71.4-123.7c24,41.6,47.5,82.3,71.4,123.7C307.7,336.6,260.8,336.6,212.7,336.6
		z"/>
	<path class="st1" d="M263.9,171.7c-24,41.5-47.4,82.1-71.5,123.7c-24.1-41.8-47.6-82.4-71.5-123.7
		C168.7,171.7,215.8,171.7,263.9,171.7z"/>
	<path class="st1" d="M447.7,171.6c-23.9,41.3-47.3,81.9-71.5,123.8c-24.1-41.7-47.6-82.4-71.5-123.8
		C352.6,171.6,399.7,171.6,447.7,171.6z"/>
	<path class="st1" d="M52.7,294.9c16.1-27.9,31.6-54.6,47.7-82.6c16.1,27.9,31.7,54.8,47.7,82.6C116.1,294.9,85,294.9,52.7,294.9z"
		/>
</g>
</svg>
